<svg xmlns="http://www.w3.org/2000/svg"><symbol id="qhs-logo" viewBox="0 0 223 95"><style>.st0{fill:#274175}.st1{fill:#6ecfff}</style><path d="M151.7 93.8l-.7-.8-.8-3.3c-.6.4-1.1.9-1.6 1.6-.3.7-.8 1.3-1.4 1.8L146 95h-2.6l-2.2-1.5v-2.2l2.4-2.1c.8-1.6 1-3.3.9-4.9l.3-1.3c.1-.9.5-1.9.1-2.5-.3-.8-.5-1.6-.3-2.5-.1-1.8.2-3.7-.5-5.5l-1.6-4.6c-.9-2.2-1.5-4.4-1.8-6.7-.4-1.8-.8-3.5-.9-5.3-.2-.9-.6-1.6-1.3-2.1l-5.9-5.3c-1.8-1.9-3.3-4.1-4.4-6.4-.7-1.5-1.2-3-1.7-4.5-1-2.3-1.9-4.8-2.4-7.4-1.2-1.4-1.6-3.3-3.5-4.1-.6-.3-1.1-.9-1.5-1.4l-2.1 2.7c-2.8.9-5.9.9-8.7.2l-5.6 6.9c-.3.6-.5 1.2-.6 1.9-.1.1 0 .3 0 .4l-.5 9.1c0 .7-.2 1.4-.5 2-.9 1.8-1.9 3.6-2.9 5.4l-1 2c-1.3 2.3-2.5 4.7-3.9 7.2-1 2-1.7 4.1-2.1 6.4-.5 2-.7 4-1.1 5.9-.4 2-.2 3.7-.3 5.6-.2 1.9.5 2 .9 2.9 1.1.2 2.2.3 3.3.7 1.1.4 2.4.7 2.5 2.3s.3.8.6 1.3l-1.6 2.3-2.5.8-1.7-.3c-1.2-.1-2.3.1-3.4-.4s-2 .3-2.9.8l-3.3 1.4-.4.2c-1.6.3-3.4.3-5 .4h-7.9l-15-.8c-.9-.2-1.7-.4-2.5-.9-.6-.3-1.1-.6-1.6-1-.6.2-1.2.3-1.8.4l-1.5.4c-1.2.3-2.5.5-3.8.6l-2.3.5c-.6.2-1.4-.3-2 .4-.6.7-.3.1-.4.1-2.5-.3-4.9.6-7.5.4-2.6-.2-4.4.8-6.8.5s-2.8.3-4.3.4-3 .4-4.6.5c-1.6.1-3.3-.3-4.7.1-1.6.3-3.3.4-4.8.3-1.6.1-3.2 0-4.7 0l1.2-.7-.4-.3L6 91.8c1.6-.6 3.2-1 4.7-1.3l7.6-1c1.1 0 2.2-.2 3.4-.4 1.1-.3 2.3-.2 3.4-.4 2.3-.6 4.7-.7 7.2-1.4 1.8-.5 3.5-1.2 5.2-2 1-.7 1.8-1.6 2.2-2.8 3-6.6 6.3-13.1 9.6-19.6 1.1-2 2.4-4 3.7-5.8 1.8-2.5 3.8-4.9 5.6-7.6.8-1.1 1.8-2.1 2.7-3.1 2.3-2.9 4.9-5.6 7.7-8.1 3.2-2.8 6-5.8 9.1-8.8 1.2-.9 2.6-1.8 4-2.4.3-.2.8-.3 1.1-.2l2.5-.5v-2.2l-1.8-.7c3-6.1 6-12.2 12.8-15.3.9 0 2-.1 2.9-.3.9-.2 1.8-.3 2.7-.3.9.9 2 .2 2.8.6 3.2.9 5.6 3.5 6 6.8 2 2.5 4.9 2.8 7.7 3.8.9 1 1.4 2.1.3 3.4.8.3.8-.4 1.2-.5l1.4-.7c2.1 1 3.7 2.9 5.2 4.8 2.2 2.9 4.1 6.1 5.4 9.6.5 1 .9 2.2 1.5 3.3 2.3 1.1 4.8.3 7.4.5l-2.8-4.7c.5-1.9 1.5-2.8 3.2-2.9.8-.1 1.5-.5 2-1 .9-.8 1.8-1.7 2.8-2.7l3.9-.7c.9-1.5.3-3.6 1.9-5.1 1.2.3 1.5 1.4 2.1 2.3.6.9.3 3.1.5 4.7.2.7.4 1.3.9 1.8 1.7 2.2 2.8 4.8 3.4 7.7.4 1.9.2 3.8.5 5.5s.3 2.9.4 4.4c.2 1.2.9 2.2 2.1 2.7 1.6.7 3.3 1.6 4.9 2.4 4.3 1.7 8.4 7.1 9.4 11.9.5 2.3.9 4.7.9 7.1-.3 5 .9 9.9.4 14.7l.8.9c1.6-.9 3.5-1.2 4.5-3.1 1.3-2.1 1.9-4.4 1.9-6.9 0-1.5.1-3 0-4.5s.3-2.7-.3-4c-.7-1.3.3-2.4-.5-3.5s0-1.3-.1-1.9-.3-.9-.4-1.5c-.1-.5-.1-2.4-.6-3.4-.5-.9-.3-2.2-.8-3.2s-.9-8.2-.5-9.7 1.5-5.4 3.7-7.6c2.1-2.1 4.7-3.4 7.5-4.1 1.1-.3 2.3-.4 3.4-.4l.9-1.5c1-.8 2.5-.3 4.1-.5-.7-.7-1.1-1.2-1.7-1.7-1.8-1.7-2.8-4.1-2.7-6.6-.2-2.4-.1-4.8-.1-7.3l-3.2-.8v-2.2l.8-.8c-.2-.3-.3-.4-.4-.7-.1-1.4.1-2.7-.4-4.1s.3-1.6.4-2.4c.6-1.4.6-2.8.2-4.2-.1-.7-.2-1.4-.2-2.1 1.6 2.7 2.7 5.1 2.3 8.2l1-.9V3.1l.9 1.7c-.9 1.7-.2 3.4-.6 5.4l1.6-1.2.3.3-1.2 1.6 1.5.3.3.2c1.8 1.6 3.1 3.8 3.9 6 .5 1.2 1.2 2.2 2.1 3.2 2.1 2.6 4 5.3 5.7 8.2.2.3.4.5.7.7v3.8c2.8 4.7 5 10 9.5 13.8l-4-1.6c-1.4-.6-2.7-1.3-4-2 1 2.8 1.6 5.3 2.4 7.9 1.4 5.1 3.2 10.2 4.8 15.2.4 1.3 1 2.5 1.7 3.6.1.2.1.4.2.7-.8-.7-1.5-1.5-2-2.2l-1.5-2.8c-.6-.9-1.2-1.7-1.7-2.6l-1.4-3-.3 2-3.4-9.5c-1.2-3.1-2.3-6.3-3.4-9.3-.9-.5-1.6 0-2.5.2-2.3.6-4.5 1.9-6.1 3.6-1.6 1.6-2.4 3.7-2.4 5.9-.1 1.9-.3 3.7-.4 5.5-.1 1.8-.1 3.6-.1 5.5s.1 3.8 0 5.7c-.1 1.9-.3 1.6-.4 2.4s.3 2-.1 2.8-.2 1.6-.4 2.4c-.9 2.2-1.3 4.5-2.8 6.6-1 1.6-2.1 3-3.2 4.4-2.2 2.4-4.9 4.1-8.1 4.7-2 .5-4 .9-5.9 1.1-2.8.3-5.5.4-8.3.3-2.8.1-5.5.1-8.4 0-.9 0-1.9-.3-2.8-.4-.9-.1-2.1.1-3.1-.1-1 .2-1.9 0-2.7-.3z" class="st0"/><path d="M113 78.3l1.6-1.6.7-3.7-2.4-2.9v-5.9l.8-.7 2.8 3.5.3-2.8c1.6.9 2 2.2 2.2 3.7.3 1.5.7 2.9 1 4.6 1.6-.3 2.8.9 3.5 2 .8 1.1 1.4 1.6 2.1 2.6v2.4l-1.6 1c-.8.3-1.9-.3-2.6.8v4.9l-1.2 2.4-1.3.2c.1.3.1.6.3.7.8.7 1.6 1.3 2.4 1.9l-.7 1.6h-3.5l-2.2-2.6-2.9 1.5.7 1.3c-1.4 1-3.1.9-4.7 1.2s-3.1-.8-4.6-1.9l-.6.4-2.9-.5-1.6-1.5-.6-3.4 2.1-.7c0-1.1-.1-2 0-2.8.3-3.4 1.9-5.2 5.1-6.3.9-.3 1.7-.2 2.7-.4.9-.3 2.8.3 4.1.7l1 .3zm20.6 14.5l-.8 1.1c-.2.3-.5.3-.8.1l-.1-.1c-.7-1.2-2.8-1.2-2.2-3.1l-2.6-.8c-1.1-.3-1.9-1.5-1.7-2.7.1-.9.3-1.8.8-2.6.1.6.2 1.3.2 1.9 0 1 .4 2 1.2 2.6.5.3 1.1.5 1.7.5l1.9-2.3h2.5l.8-.8-.5-.5c.5-.9.5-.9 1.6-1.2l1.1 1c1-.2 1.2-1.5 2.4-.8l.5.9-.5 1.1-.8.2c-.1 1.4.3 2.8-.8 3.8s.5 1.4.3 2.2-.6.1-.8-.1c-.6-.3-1.1-.8-1.6-1.2l-1.8.8z" class="st0"/><path d="M122.9 46.1c1.5 2 1.2 4.7-.5 6.4l-5.3 5.3c-.8.7-1.9.7-2.6 0l-5.3-5.3c-1.9-1.8-1.9-4.9-.1-6.8 1.8-1.9 4.9-1.9 6.8-.1 1.9-1.9 5-1.8 6.9.2-.2.1 0 .1.1.3z" class="st1"/></symbol><symbol id="facebook" viewBox="0 0 256 256"><style>.st0{fill:#2b4271}</style><path d="M219.5 1h-183C16.9 1 1 16.9 1 36.5v183C1 239.1 16.9 255 36.5 255h183c19.6 0 35.5-15.9 35.5-35.5v-183C255 16.9 239.1 1 219.5 1zm-10.7 127H179v81h-35v-81h-16v-26h16V84.3c0-12.2 3-21.6 8.9-27.8s15.6-9.5 28.8-9.5H213v29h-25.5c-3.6 0-5.9.7-7 2.5s-1.5 4.6-1.5 8.7V102h34.5l-4.7 26z" class="st0"/></symbol><symbol id="instagram" viewBox="0 0 256 256"><style>.st0{fill:#2b4271}</style><path d="M128 98.3c-16.4 0-29.7 13.3-29.7 29.7s13.3 29.7 29.7 29.7c8.2 0 15.6-3.3 21-8.7s8.7-12.8 8.7-21c0-16.4-13.3-29.7-29.7-29.7zm0 0c-16.4 0-29.7 13.3-29.7 29.7s13.3 29.7 29.7 29.7c8.2 0 15.6-3.3 21-8.7s8.7-12.8 8.7-21c0-16.4-13.3-29.7-29.7-29.7zm72.5-6.3c-.4-8.7-1.8-13.4-3-16.6-3.1-7.7-9.2-13.8-16.9-16.9-3.2-1.2-7.2-2.5-16.6-3s-12.2-.6-36-.6-27.3.2-36 .6-13.4 1.8-16.6 3c-7.7 3.1-13.8 9.2-16.9 16.9-1.2 3.2-2.5 7.2-3 16.6s-.6 12.2-.6 36 .2 27.3.6 36 1.8 13.4 3 16.6c3.1 7.7 9.2 13.8 16.9 16.9 3.2 1.2 7.2 2.5 16.6 3s12.2.6 36 .6 27.3-.2 36-.6 13.4-1.8 16.6-3c7.7-3.1 13.8-9.2 16.9-16.9 1.2-3.2 2.5-7.2 3-16.6s.6-12.2.6-36-.2-27.3-.6-36zM128 173.8c-25.3 0-45.8-20.5-45.8-45.8s20.5-45.8 45.8-45.8 45.8 20.5 45.8 45.8-20.5 45.8-45.8 45.8zm47.6-82.7c-5.9 0-10.7-4.8-10.7-10.7 0-5.9 4.8-10.7 10.7-10.7s10.7 4.8 10.7 10.7c0 5.9-4.8 10.7-10.7 10.7zM128 98.3c-16.4 0-29.7 13.3-29.7 29.7s13.3 29.7 29.7 29.7c8.2 0 15.6-3.3 21-8.7s8.7-12.8 8.7-21c0-16.4-13.3-29.7-29.7-29.7zm72.5-6.3c-.4-8.7-1.8-13.4-3-16.6-3.1-7.7-9.2-13.8-16.9-16.9-3.2-1.2-7.2-2.5-16.6-3s-12.2-.6-36-.6-27.3.2-36 .6-13.4 1.8-16.6 3c-7.7 3.1-13.8 9.2-16.9 16.9-1.2 3.2-2.5 7.2-3 16.6s-.6 12.2-.6 36 .2 27.3.6 36 1.8 13.4 3 16.6c3.1 7.7 9.2 13.8 16.9 16.9 3.2 1.2 7.2 2.5 16.6 3s12.2.6 36 .6 27.3-.2 36-.6 13.4-1.8 16.6-3c7.7-3.1 13.8-9.2 16.9-16.9 1.2-3.2 2.5-7.2 3-16.6s.6-12.2.6-36-.2-27.3-.6-36zM128 173.8c-25.3 0-45.8-20.5-45.8-45.8s20.5-45.8 45.8-45.8 45.8 20.5 45.8 45.8-20.5 45.8-45.8 45.8zm47.6-82.7c-5.9 0-10.7-4.8-10.7-10.7 0-5.9 4.8-10.7 10.7-10.7s10.7 4.8 10.7 10.7c0 5.9-4.8 10.7-10.7 10.7zM128 98.3c-16.4 0-29.7 13.3-29.7 29.7s13.3 29.7 29.7 29.7c8.2 0 15.6-3.3 21-8.7s8.7-12.8 8.7-21c0-16.4-13.3-29.7-29.7-29.7zM219.5 1h-183C16.9 1 1 16.9 1 36.5v183C1 239.1 16.9 255 36.5 255h183c19.6 0 35.5-15.9 35.5-35.5v-183C255 16.9 239.1 1 219.5 1zm-2.9 163.7c-.1 7.4-1.6 14.8-4.2 21.7-4.5 12-14 21.5-26 26-6.9 2.6-14.3 4-21.7 4.2-9.5.4-12.5.5-36.7.5s-27.2-.1-36.7-.5c-7.4-.1-14.8-1.6-21.7-4.2-12-4.5-21.5-14-26-26-2.6-6.9-4-14.3-4.2-21.7-.4-9.5-.5-12.5-.5-36.7s.1-27.2.5-36.7c.1-7.4 1.6-14.8 4.2-21.7 4.5-12 14-21.5 26-26 6.9-2.6 14.3-4 21.7-4.2 9.5-.4 12.5-.5 36.7-.5s27.2.1 36.7.5c7.4.1 14.8 1.6 21.7 4.2 12 4.5 21.5 14 26 26 2.6 6.9 4 14.3 4.2 21.7.4 9.5.5 12.5.5 36.7s-.1 27.2-.5 36.7zm-19.1-89.3c-3.1-7.7-9.2-13.8-16.9-16.9-3.2-1.2-7.2-2.5-16.6-3s-12.2-.6-36-.6-27.3.2-36 .6-13.4 1.8-16.6 3c-7.7 3.1-13.8 9.2-16.9 16.9-1.2 3.2-2.5 7.2-3 16.6s-.6 12.2-.6 36 .2 27.3.6 36 1.8 13.4 3 16.6c3.1 7.7 9.2 13.8 16.9 16.9 3.2 1.2 7.2 2.5 16.6 3s12.2.6 36 .6 27.3-.2 36-.6 13.4-1.8 16.6-3c7.7-3.1 13.8-9.2 16.9-16.9 1.2-3.2 2.5-7.2 3-16.6s.6-12.2.6-36-.2-27.3-.6-36-1.8-13.4-3-16.6zM128 173.8c-25.3 0-45.8-20.5-45.8-45.8s20.5-45.8 45.8-45.8 45.8 20.5 45.8 45.8-20.5 45.8-45.8 45.8zm47.6-82.7c-5.9 0-10.7-4.8-10.7-10.7 0-5.9 4.8-10.7 10.7-10.7s10.7 4.8 10.7 10.7c0 5.9-4.8 10.7-10.7 10.7zM128 98.3c-16.4 0-29.7 13.3-29.7 29.7s13.3 29.7 29.7 29.7c8.2 0 15.6-3.3 21-8.7s8.7-12.8 8.7-21c0-16.4-13.3-29.7-29.7-29.7zm0 0c-16.4 0-29.7 13.3-29.7 29.7s13.3 29.7 29.7 29.7c8.2 0 15.6-3.3 21-8.7s8.7-12.8 8.7-21c0-16.4-13.3-29.7-29.7-29.7zm0 0c-16.4 0-29.7 13.3-29.7 29.7s13.3 29.7 29.7 29.7c8.2 0 15.6-3.3 21-8.7s8.7-12.8 8.7-21c0-16.4-13.3-29.7-29.7-29.7zm72.5-6.3c-.4-8.7-1.8-13.4-3-16.6-3.1-7.7-9.2-13.8-16.9-16.9-3.2-1.2-7.2-2.5-16.6-3s-12.2-.6-36-.6-27.3.2-36 .6-13.4 1.8-16.6 3c-7.7 3.1-13.8 9.2-16.9 16.9-1.2 3.2-2.5 7.2-3 16.6s-.6 12.2-.6 36 .2 27.3.6 36 1.8 13.4 3 16.6c3.1 7.7 9.2 13.8 16.9 16.9 3.2 1.2 7.2 2.5 16.6 3s12.2.6 36 .6 27.3-.2 36-.6 13.4-1.8 16.6-3c7.7-3.1 13.8-9.2 16.9-16.9 1.2-3.2 2.5-7.2 3-16.6s.6-12.2.6-36-.2-27.3-.6-36zM128 173.8c-25.3 0-45.8-20.5-45.8-45.8s20.5-45.8 45.8-45.8 45.8 20.5 45.8 45.8-20.5 45.8-45.8 45.8zm47.6-82.7c-5.9 0-10.7-4.8-10.7-10.7 0-5.9 4.8-10.7 10.7-10.7s10.7 4.8 10.7 10.7c0 5.9-4.8 10.7-10.7 10.7zM128 98.3c-16.4 0-29.7 13.3-29.7 29.7s13.3 29.7 29.7 29.7c8.2 0 15.6-3.3 21-8.7s8.7-12.8 8.7-21c0-16.4-13.3-29.7-29.7-29.7zm0 0c-16.4 0-29.7 13.3-29.7 29.7s13.3 29.7 29.7 29.7c8.2 0 15.6-3.3 21-8.7s8.7-12.8 8.7-21c0-16.4-13.3-29.7-29.7-29.7zm0 0c-16.4 0-29.7 13.3-29.7 29.7s13.3 29.7 29.7 29.7c8.2 0 15.6-3.3 21-8.7s8.7-12.8 8.7-21c0-16.4-13.3-29.7-29.7-29.7zm72.5-6.3c-.4-8.7-1.8-13.4-3-16.6-3.1-7.7-9.2-13.8-16.9-16.9-3.2-1.2-7.2-2.5-16.6-3s-12.2-.6-36-.6-27.3.2-36 .6-13.4 1.8-16.6 3c-7.7 3.1-13.8 9.2-16.9 16.9-1.2 3.2-2.5 7.2-3 16.6s-.6 12.2-.6 36 .2 27.3.6 36 1.8 13.4 3 16.6c3.1 7.7 9.2 13.8 16.9 16.9 3.2 1.2 7.2 2.5 16.6 3s12.2.6 36 .6 27.3-.2 36-.6 13.4-1.8 16.6-3c7.7-3.1 13.8-9.2 16.9-16.9 1.2-3.2 2.5-7.2 3-16.6s.6-12.2.6-36-.2-27.3-.6-36zM128 173.8c-25.3 0-45.8-20.5-45.8-45.8s20.5-45.8 45.8-45.8 45.8 20.5 45.8 45.8-20.5 45.8-45.8 45.8zm47.6-82.7c-5.9 0-10.7-4.8-10.7-10.7 0-5.9 4.8-10.7 10.7-10.7s10.7 4.8 10.7 10.7c0 5.9-4.8 10.7-10.7 10.7zM128 98.3c-16.4 0-29.7 13.3-29.7 29.7s13.3 29.7 29.7 29.7c8.2 0 15.6-3.3 21-8.7s8.7-12.8 8.7-21c0-16.4-13.3-29.7-29.7-29.7z" class="st0"/></symbol><symbol id="youtube" viewBox="0 0 256 256"><style>.st0{fill:#2b4271}</style><path d="M219.5 1h-183C16.9 1 1 16.9 1 36.5v183C1 239.1 16.9 255 36.5 255h183c19.6 0 35.5-15.9 35.5-35.5v-183C255 16.9 239.1 1 219.5 1zm-9.7 130.6c-.1 8.8-.6 17.5-1.7 26.2 0 0-1.8 11.2-6.6 16.1-6.1 6.5-13 6.5-16.2 6.9-22.7 1.6-56.8 1.6-56.8 1.6s-42.1-.3-55.2-1.6c-3.6-.7-11.7-.4-17.9-6.9-4.9-4.9-6.6-16.1-6.6-16.1-1.1-8.7-1.6-17.4-1.7-26.2v-12.3c.1-8.8.6-17.6 1.7-26.3 0 0 1.7-11.2 6.6-16.1 6.1-6.5 13-6.6 16.2-7 22.7-1.6 56.8-1.9 56.8-1.9s34 .3 56.8 1.9c3.1.3 10.1.6 16.3 7.1 4.9 4.9 6.6 16.1 6.6 16.1 1.1 8.7 1.6 17.4 1.7 26.2v12.3zm-98.1 14.9l43.8-22.7-43.8-22.8v45.5z" class="st0"/></symbol><symbol id="qhs-logo" viewBox="0 0 223 95"><style>.st0{fill:#274175}.st1{fill:#6ecfff}</style><path d="M151.7 93.8l-.7-.8-.8-3.3c-.6.4-1.1.9-1.6 1.6-.3.7-.8 1.3-1.4 1.8L146 95h-2.6l-2.2-1.5v-2.2l2.4-2.1c.8-1.6 1-3.3.9-4.9l.3-1.3c.1-.9.5-1.9.1-2.5-.3-.8-.5-1.6-.3-2.5-.1-1.8.2-3.7-.5-5.5l-1.6-4.6c-.9-2.2-1.5-4.4-1.8-6.7-.4-1.8-.8-3.5-.9-5.3-.2-.9-.6-1.6-1.3-2.1l-5.9-5.3c-1.8-1.9-3.3-4.1-4.4-6.4-.7-1.5-1.2-3-1.7-4.5-1-2.3-1.9-4.8-2.4-7.4-1.2-1.4-1.6-3.3-3.5-4.1-.6-.3-1.1-.9-1.5-1.4l-2.1 2.7c-2.8.9-5.9.9-8.7.2l-5.6 6.9c-.3.6-.5 1.2-.6 1.9-.1.1 0 .3 0 .4l-.5 9.1c0 .7-.2 1.4-.5 2-.9 1.8-1.9 3.6-2.9 5.4l-1 2c-1.3 2.3-2.5 4.7-3.9 7.2-1 2-1.7 4.1-2.1 6.4-.5 2-.7 4-1.1 5.9-.4 2-.2 3.7-.3 5.6-.2 1.9.5 2 .9 2.9 1.1.2 2.2.3 3.3.7 1.1.4 2.4.7 2.5 2.3s.3.8.6 1.3l-1.6 2.3-2.5.8-1.7-.3c-1.2-.1-2.3.1-3.4-.4s-2 .3-2.9.8l-3.3 1.4-.4.2c-1.6.3-3.4.3-5 .4h-7.9l-15-.8c-.9-.2-1.7-.4-2.5-.9-.6-.3-1.1-.6-1.6-1-.6.2-1.2.3-1.8.4l-1.5.4c-1.2.3-2.5.5-3.8.6l-2.3.5c-.6.2-1.4-.3-2 .4-.6.7-.3.1-.4.1-2.5-.3-4.9.6-7.5.4-2.6-.2-4.4.8-6.8.5s-2.8.3-4.3.4-3 .4-4.6.5c-1.6.1-3.3-.3-4.7.1-1.6.3-3.3.4-4.8.3-1.6.1-3.2 0-4.7 0l1.2-.7-.4-.3L6 91.8c1.6-.6 3.2-1 4.7-1.3l7.6-1c1.1 0 2.2-.2 3.4-.4 1.1-.3 2.3-.2 3.4-.4 2.3-.6 4.7-.7 7.2-1.4 1.8-.5 3.5-1.2 5.2-2 1-.7 1.8-1.6 2.2-2.8 3-6.6 6.3-13.1 9.6-19.6 1.1-2 2.4-4 3.7-5.8 1.8-2.5 3.8-4.9 5.6-7.6.8-1.1 1.8-2.1 2.7-3.1 2.3-2.9 4.9-5.6 7.7-8.1 3.2-2.8 6-5.8 9.1-8.8 1.2-.9 2.6-1.8 4-2.4.3-.2.8-.3 1.1-.2l2.5-.5v-2.2l-1.8-.7c3-6.1 6-12.2 12.8-15.3.9 0 2-.1 2.9-.3.9-.2 1.8-.3 2.7-.3.9.9 2 .2 2.8.6 3.2.9 5.6 3.5 6 6.8 2 2.5 4.9 2.8 7.7 3.8.9 1 1.4 2.1.3 3.4.8.3.8-.4 1.2-.5l1.4-.7c2.1 1 3.7 2.9 5.2 4.8 2.2 2.9 4.1 6.1 5.4 9.6.5 1 .9 2.2 1.5 3.3 2.3 1.1 4.8.3 7.4.5l-2.8-4.7c.5-1.9 1.5-2.8 3.2-2.9.8-.1 1.5-.5 2-1 .9-.8 1.8-1.7 2.8-2.7l3.9-.7c.9-1.5.3-3.6 1.9-5.1 1.2.3 1.5 1.4 2.1 2.3.6.9.3 3.1.5 4.7.2.7.4 1.3.9 1.8 1.7 2.2 2.8 4.8 3.4 7.7.4 1.9.2 3.8.5 5.5s.3 2.9.4 4.4c.2 1.2.9 2.2 2.1 2.7 1.6.7 3.3 1.6 4.9 2.4 4.3 1.7 8.4 7.1 9.4 11.9.5 2.3.9 4.7.9 7.1-.3 5 .9 9.9.4 14.7l.8.9c1.6-.9 3.5-1.2 4.5-3.1 1.3-2.1 1.9-4.4 1.9-6.9 0-1.5.1-3 0-4.5s.3-2.7-.3-4c-.7-1.3.3-2.4-.5-3.5s0-1.3-.1-1.9-.3-.9-.4-1.5c-.1-.5-.1-2.4-.6-3.4-.5-.9-.3-2.2-.8-3.2s-.9-8.2-.5-9.7 1.5-5.4 3.7-7.6c2.1-2.1 4.7-3.4 7.5-4.1 1.1-.3 2.3-.4 3.4-.4l.9-1.5c1-.8 2.5-.3 4.1-.5-.7-.7-1.1-1.2-1.7-1.7-1.8-1.7-2.8-4.1-2.7-6.6-.2-2.4-.1-4.8-.1-7.3l-3.2-.8v-2.2l.8-.8c-.2-.3-.3-.4-.4-.7-.1-1.4.1-2.7-.4-4.1s.3-1.6.4-2.4c.6-1.4.6-2.8.2-4.2-.1-.7-.2-1.4-.2-2.1 1.6 2.7 2.7 5.1 2.3 8.2l1-.9V3.1l.9 1.7c-.9 1.7-.2 3.4-.6 5.4l1.6-1.2.3.3-1.2 1.6 1.5.3.3.2c1.8 1.6 3.1 3.8 3.9 6 .5 1.2 1.2 2.2 2.1 3.2 2.1 2.6 4 5.3 5.7 8.2.2.3.4.5.7.7v3.8c2.8 4.7 5 10 9.5 13.8l-4-1.6c-1.4-.6-2.7-1.3-4-2 1 2.8 1.6 5.3 2.4 7.9 1.4 5.1 3.2 10.2 4.8 15.2.4 1.3 1 2.5 1.7 3.6.1.2.1.4.2.7-.8-.7-1.5-1.5-2-2.2l-1.5-2.8c-.6-.9-1.2-1.7-1.7-2.6l-1.4-3-.3 2-3.4-9.5c-1.2-3.1-2.3-6.3-3.4-9.3-.9-.5-1.6 0-2.5.2-2.3.6-4.5 1.9-6.1 3.6-1.6 1.6-2.4 3.7-2.4 5.9-.1 1.9-.3 3.7-.4 5.5-.1 1.8-.1 3.6-.1 5.5s.1 3.8 0 5.7c-.1 1.9-.3 1.6-.4 2.4s.3 2-.1 2.8-.2 1.6-.4 2.4c-.9 2.2-1.3 4.5-2.8 6.6-1 1.6-2.1 3-3.2 4.4-2.2 2.4-4.9 4.1-8.1 4.7-2 .5-4 .9-5.9 1.1-2.8.3-5.5.4-8.3.3-2.8.1-5.5.1-8.4 0-.9 0-1.9-.3-2.8-.4-.9-.1-2.1.1-3.1-.1-1 .2-1.9 0-2.7-.3z" class="st0"/><path d="M113 78.3l1.6-1.6.7-3.7-2.4-2.9v-5.9l.8-.7 2.8 3.5.3-2.8c1.6.9 2 2.2 2.2 3.7.3 1.5.7 2.9 1 4.6 1.6-.3 2.8.9 3.5 2 .8 1.1 1.4 1.6 2.1 2.6v2.4l-1.6 1c-.8.3-1.9-.3-2.6.8v4.9l-1.2 2.4-1.3.2c.1.3.1.6.3.7.8.7 1.6 1.3 2.4 1.9l-.7 1.6h-3.5l-2.2-2.6-2.9 1.5.7 1.3c-1.4 1-3.1.9-4.7 1.2s-3.1-.8-4.6-1.9l-.6.4-2.9-.5-1.6-1.5-.6-3.4 2.1-.7c0-1.1-.1-2 0-2.8.3-3.4 1.9-5.2 5.1-6.3.9-.3 1.7-.2 2.7-.4.9-.3 2.8.3 4.1.7l1 .3zm20.6 14.5l-.8 1.1c-.2.3-.5.3-.8.1l-.1-.1c-.7-1.2-2.8-1.2-2.2-3.1l-2.6-.8c-1.1-.3-1.9-1.5-1.7-2.7.1-.9.3-1.8.8-2.6.1.6.2 1.3.2 1.9 0 1 .4 2 1.2 2.6.5.3 1.1.5 1.7.5l1.9-2.3h2.5l.8-.8-.5-.5c.5-.9.5-.9 1.6-1.2l1.1 1c1-.2 1.2-1.5 2.4-.8l.5.9-.5 1.1-.8.2c-.1 1.4.3 2.8-.8 3.8s.5 1.4.3 2.2-.6.1-.8-.1c-.6-.3-1.1-.8-1.6-1.2l-1.8.8z" class="st0"/><path d="M122.9 46.1c1.5 2 1.2 4.7-.5 6.4l-5.3 5.3c-.8.7-1.9.7-2.6 0l-5.3-5.3c-1.9-1.8-1.9-4.9-.1-6.8 1.8-1.9 4.9-1.9 6.8-.1 1.9-1.9 5-1.8 6.9.2-.2.1 0 .1.1.3z" class="st1"/></symbol><symbol id="qhs-logo" viewBox="0 0 223 95"><style>.st0{fill:#274175}.st1{fill:#6ecfff}</style><path d="M151.7 93.8l-.7-.8-.8-3.3c-.6.4-1.1.9-1.6 1.6-.3.7-.8 1.3-1.4 1.8L146 95h-2.6l-2.2-1.5v-2.2l2.4-2.1c.8-1.6 1-3.3.9-4.9l.3-1.3c.1-.9.5-1.9.1-2.5-.3-.8-.5-1.6-.3-2.5-.1-1.8.2-3.7-.5-5.5l-1.6-4.6c-.9-2.2-1.5-4.4-1.8-6.7-.4-1.8-.8-3.5-.9-5.3-.2-.9-.6-1.6-1.3-2.1l-5.9-5.3c-1.8-1.9-3.3-4.1-4.4-6.4-.7-1.5-1.2-3-1.7-4.5-1-2.3-1.9-4.8-2.4-7.4-1.2-1.4-1.6-3.3-3.5-4.1-.6-.3-1.1-.9-1.5-1.4l-2.1 2.7c-2.8.9-5.9.9-8.7.2l-5.6 6.9c-.3.6-.5 1.2-.6 1.9-.1.1 0 .3 0 .4l-.5 9.1c0 .7-.2 1.4-.5 2-.9 1.8-1.9 3.6-2.9 5.4l-1 2c-1.3 2.3-2.5 4.7-3.9 7.2-1 2-1.7 4.1-2.1 6.4-.5 2-.7 4-1.1 5.9-.4 2-.2 3.7-.3 5.6-.2 1.9.5 2 .9 2.9 1.1.2 2.2.3 3.3.7 1.1.4 2.4.7 2.5 2.3s.3.8.6 1.3l-1.6 2.3-2.5.8-1.7-.3c-1.2-.1-2.3.1-3.4-.4s-2 .3-2.9.8l-3.3 1.4-.4.2c-1.6.3-3.4.3-5 .4h-7.9l-15-.8c-.9-.2-1.7-.4-2.5-.9-.6-.3-1.1-.6-1.6-1-.6.2-1.2.3-1.8.4l-1.5.4c-1.2.3-2.5.5-3.8.6l-2.3.5c-.6.2-1.4-.3-2 .4-.6.7-.3.1-.4.1-2.5-.3-4.9.6-7.5.4-2.6-.2-4.4.8-6.8.5s-2.8.3-4.3.4-3 .4-4.6.5c-1.6.1-3.3-.3-4.7.1-1.6.3-3.3.4-4.8.3-1.6.1-3.2 0-4.7 0l1.2-.7-.4-.3L6 91.8c1.6-.6 3.2-1 4.7-1.3l7.6-1c1.1 0 2.2-.2 3.4-.4 1.1-.3 2.3-.2 3.4-.4 2.3-.6 4.7-.7 7.2-1.4 1.8-.5 3.5-1.2 5.2-2 1-.7 1.8-1.6 2.2-2.8 3-6.6 6.3-13.1 9.6-19.6 1.1-2 2.4-4 3.7-5.8 1.8-2.5 3.8-4.9 5.6-7.6.8-1.1 1.8-2.1 2.7-3.1 2.3-2.9 4.9-5.6 7.7-8.1 3.2-2.8 6-5.8 9.1-8.8 1.2-.9 2.6-1.8 4-2.4.3-.2.8-.3 1.1-.2l2.5-.5v-2.2l-1.8-.7c3-6.1 6-12.2 12.8-15.3.9 0 2-.1 2.9-.3.9-.2 1.8-.3 2.7-.3.9.9 2 .2 2.8.6 3.2.9 5.6 3.5 6 6.8 2 2.5 4.9 2.8 7.7 3.8.9 1 1.4 2.1.3 3.4.8.3.8-.4 1.2-.5l1.4-.7c2.1 1 3.7 2.9 5.2 4.8 2.2 2.9 4.1 6.1 5.4 9.6.5 1 .9 2.2 1.5 3.3 2.3 1.1 4.8.3 7.4.5l-2.8-4.7c.5-1.9 1.5-2.8 3.2-2.9.8-.1 1.5-.5 2-1 .9-.8 1.8-1.7 2.8-2.7l3.9-.7c.9-1.5.3-3.6 1.9-5.1 1.2.3 1.5 1.4 2.1 2.3.6.9.3 3.1.5 4.7.2.7.4 1.3.9 1.8 1.7 2.2 2.8 4.8 3.4 7.7.4 1.9.2 3.8.5 5.5s.3 2.9.4 4.4c.2 1.2.9 2.2 2.1 2.7 1.6.7 3.3 1.6 4.9 2.4 4.3 1.7 8.4 7.1 9.4 11.9.5 2.3.9 4.7.9 7.1-.3 5 .9 9.9.4 14.7l.8.9c1.6-.9 3.5-1.2 4.5-3.1 1.3-2.1 1.9-4.4 1.9-6.9 0-1.5.1-3 0-4.5s.3-2.7-.3-4c-.7-1.3.3-2.4-.5-3.5s0-1.3-.1-1.9-.3-.9-.4-1.5c-.1-.5-.1-2.4-.6-3.4-.5-.9-.3-2.2-.8-3.2s-.9-8.2-.5-9.7 1.5-5.4 3.7-7.6c2.1-2.1 4.7-3.4 7.5-4.1 1.1-.3 2.3-.4 3.4-.4l.9-1.5c1-.8 2.5-.3 4.1-.5-.7-.7-1.1-1.2-1.7-1.7-1.8-1.7-2.8-4.1-2.7-6.6-.2-2.4-.1-4.8-.1-7.3l-3.2-.8v-2.2l.8-.8c-.2-.3-.3-.4-.4-.7-.1-1.4.1-2.7-.4-4.1s.3-1.6.4-2.4c.6-1.4.6-2.8.2-4.2-.1-.7-.2-1.4-.2-2.1 1.6 2.7 2.7 5.1 2.3 8.2l1-.9V3.1l.9 1.7c-.9 1.7-.2 3.4-.6 5.4l1.6-1.2.3.3-1.2 1.6 1.5.3.3.2c1.8 1.6 3.1 3.8 3.9 6 .5 1.2 1.2 2.2 2.1 3.2 2.1 2.6 4 5.3 5.7 8.2.2.3.4.5.7.7v3.8c2.8 4.7 5 10 9.5 13.8l-4-1.6c-1.4-.6-2.7-1.3-4-2 1 2.8 1.6 5.3 2.4 7.9 1.4 5.1 3.2 10.2 4.8 15.2.4 1.3 1 2.5 1.7 3.6.1.2.1.4.2.7-.8-.7-1.5-1.5-2-2.2l-1.5-2.8c-.6-.9-1.2-1.7-1.7-2.6l-1.4-3-.3 2-3.4-9.5c-1.2-3.1-2.3-6.3-3.4-9.3-.9-.5-1.6 0-2.5.2-2.3.6-4.5 1.9-6.1 3.6-1.6 1.6-2.4 3.7-2.4 5.9-.1 1.9-.3 3.7-.4 5.5-.1 1.8-.1 3.6-.1 5.5s.1 3.8 0 5.7c-.1 1.9-.3 1.6-.4 2.4s.3 2-.1 2.8-.2 1.6-.4 2.4c-.9 2.2-1.3 4.5-2.8 6.6-1 1.6-2.1 3-3.2 4.4-2.2 2.4-4.9 4.1-8.1 4.7-2 .5-4 .9-5.9 1.1-2.8.3-5.5.4-8.3.3-2.8.1-5.5.1-8.4 0-.9 0-1.9-.3-2.8-.4-.9-.1-2.1.1-3.1-.1-1 .2-1.9 0-2.7-.3z" class="st0"/><path d="M113 78.3l1.6-1.6.7-3.7-2.4-2.9v-5.9l.8-.7 2.8 3.5.3-2.8c1.6.9 2 2.2 2.2 3.7.3 1.5.7 2.9 1 4.6 1.6-.3 2.8.9 3.5 2 .8 1.1 1.4 1.6 2.1 2.6v2.4l-1.6 1c-.8.3-1.9-.3-2.6.8v4.9l-1.2 2.4-1.3.2c.1.3.1.6.3.7.8.7 1.6 1.3 2.4 1.9l-.7 1.6h-3.5l-2.2-2.6-2.9 1.5.7 1.3c-1.4 1-3.1.9-4.7 1.2s-3.1-.8-4.6-1.9l-.6.4-2.9-.5-1.6-1.5-.6-3.4 2.1-.7c0-1.1-.1-2 0-2.8.3-3.4 1.9-5.2 5.1-6.3.9-.3 1.7-.2 2.7-.4.9-.3 2.8.3 4.1.7l1 .3zm20.6 14.5l-.8 1.1c-.2.3-.5.3-.8.1l-.1-.1c-.7-1.2-2.8-1.2-2.2-3.1l-2.6-.8c-1.1-.3-1.9-1.5-1.7-2.7.1-.9.3-1.8.8-2.6.1.6.2 1.3.2 1.9 0 1 .4 2 1.2 2.6.5.3 1.1.5 1.7.5l1.9-2.3h2.5l.8-.8-.5-.5c.5-.9.5-.9 1.6-1.2l1.1 1c1-.2 1.2-1.5 2.4-.8l.5.9-.5 1.1-.8.2c-.1 1.4.3 2.8-.8 3.8s.5 1.4.3 2.2-.6.1-.8-.1c-.6-.3-1.1-.8-1.6-1.2l-1.8.8z" class="st0"/><path d="M122.9 46.1c1.5 2 1.2 4.7-.5 6.4l-5.3 5.3c-.8.7-1.9.7-2.6 0l-5.3-5.3c-1.9-1.8-1.9-4.9-.1-6.8 1.8-1.9 4.9-1.9 6.8-.1 1.9-1.9 5-1.8 6.9.2-.2.1 0 .1.1.3z" class="st1"/></symbol><symbol id="qhs-logo" viewBox="0 0 223 95"><style>.st0{fill:#274175}.st1{fill:#6ecfff}</style><path d="M151.7 93.8l-.7-.8-.8-3.3c-.6.4-1.1.9-1.6 1.6-.3.7-.8 1.3-1.4 1.8L146 95h-2.6l-2.2-1.5v-2.2l2.4-2.1c.8-1.6 1-3.3.9-4.9l.3-1.3c.1-.9.5-1.9.1-2.5-.3-.8-.5-1.6-.3-2.5-.1-1.8.2-3.7-.5-5.5l-1.6-4.6c-.9-2.2-1.5-4.4-1.8-6.7-.4-1.8-.8-3.5-.9-5.3-.2-.9-.6-1.6-1.3-2.1l-5.9-5.3c-1.8-1.9-3.3-4.1-4.4-6.4-.7-1.5-1.2-3-1.7-4.5-1-2.3-1.9-4.8-2.4-7.4-1.2-1.4-1.6-3.3-3.5-4.1-.6-.3-1.1-.9-1.5-1.4l-2.1 2.7c-2.8.9-5.9.9-8.7.2l-5.6 6.9c-.3.6-.5 1.2-.6 1.9-.1.1 0 .3 0 .4l-.5 9.1c0 .7-.2 1.4-.5 2-.9 1.8-1.9 3.6-2.9 5.4l-1 2c-1.3 2.3-2.5 4.7-3.9 7.2-1 2-1.7 4.1-2.1 6.4-.5 2-.7 4-1.1 5.9-.4 2-.2 3.7-.3 5.6-.2 1.9.5 2 .9 2.9 1.1.2 2.2.3 3.3.7 1.1.4 2.4.7 2.5 2.3s.3.8.6 1.3l-1.6 2.3-2.5.8-1.7-.3c-1.2-.1-2.3.1-3.4-.4s-2 .3-2.9.8l-3.3 1.4-.4.2c-1.6.3-3.4.3-5 .4h-7.9l-15-.8c-.9-.2-1.7-.4-2.5-.9-.6-.3-1.1-.6-1.6-1-.6.2-1.2.3-1.8.4l-1.5.4c-1.2.3-2.5.5-3.8.6l-2.3.5c-.6.2-1.4-.3-2 .4-.6.7-.3.1-.4.1-2.5-.3-4.9.6-7.5.4-2.6-.2-4.4.8-6.8.5s-2.8.3-4.3.4-3 .4-4.6.5c-1.6.1-3.3-.3-4.7.1-1.6.3-3.3.4-4.8.3-1.6.1-3.2 0-4.7 0l1.2-.7-.4-.3L6 91.8c1.6-.6 3.2-1 4.7-1.3l7.6-1c1.1 0 2.2-.2 3.4-.4 1.1-.3 2.3-.2 3.4-.4 2.3-.6 4.7-.7 7.2-1.4 1.8-.5 3.5-1.2 5.2-2 1-.7 1.8-1.6 2.2-2.8 3-6.6 6.3-13.1 9.6-19.6 1.1-2 2.4-4 3.7-5.8 1.8-2.5 3.8-4.9 5.6-7.6.8-1.1 1.8-2.1 2.7-3.1 2.3-2.9 4.9-5.6 7.7-8.1 3.2-2.8 6-5.8 9.1-8.8 1.2-.9 2.6-1.8 4-2.4.3-.2.8-.3 1.1-.2l2.5-.5v-2.2l-1.8-.7c3-6.1 6-12.2 12.8-15.3.9 0 2-.1 2.9-.3.9-.2 1.8-.3 2.7-.3.9.9 2 .2 2.8.6 3.2.9 5.6 3.5 6 6.8 2 2.5 4.9 2.8 7.7 3.8.9 1 1.4 2.1.3 3.4.8.3.8-.4 1.2-.5l1.4-.7c2.1 1 3.7 2.9 5.2 4.8 2.2 2.9 4.1 6.1 5.4 9.6.5 1 .9 2.2 1.5 3.3 2.3 1.1 4.8.3 7.4.5l-2.8-4.7c.5-1.9 1.5-2.8 3.2-2.9.8-.1 1.5-.5 2-1 .9-.8 1.8-1.7 2.8-2.7l3.9-.7c.9-1.5.3-3.6 1.9-5.1 1.2.3 1.5 1.4 2.1 2.3.6.9.3 3.1.5 4.7.2.7.4 1.3.9 1.8 1.7 2.2 2.8 4.8 3.4 7.7.4 1.9.2 3.8.5 5.5s.3 2.9.4 4.4c.2 1.2.9 2.2 2.1 2.7 1.6.7 3.3 1.6 4.9 2.4 4.3 1.7 8.4 7.1 9.4 11.9.5 2.3.9 4.7.9 7.1-.3 5 .9 9.9.4 14.7l.8.9c1.6-.9 3.5-1.2 4.5-3.1 1.3-2.1 1.9-4.4 1.9-6.9 0-1.5.1-3 0-4.5s.3-2.7-.3-4c-.7-1.3.3-2.4-.5-3.5s0-1.3-.1-1.9-.3-.9-.4-1.5c-.1-.5-.1-2.4-.6-3.4-.5-.9-.3-2.2-.8-3.2s-.9-8.2-.5-9.7 1.5-5.4 3.7-7.6c2.1-2.1 4.7-3.4 7.5-4.1 1.1-.3 2.3-.4 3.4-.4l.9-1.5c1-.8 2.5-.3 4.1-.5-.7-.7-1.1-1.2-1.7-1.7-1.8-1.7-2.8-4.1-2.7-6.6-.2-2.4-.1-4.8-.1-7.3l-3.2-.8v-2.2l.8-.8c-.2-.3-.3-.4-.4-.7-.1-1.4.1-2.7-.4-4.1s.3-1.6.4-2.4c.6-1.4.6-2.8.2-4.2-.1-.7-.2-1.4-.2-2.1 1.6 2.7 2.7 5.1 2.3 8.2l1-.9V3.1l.9 1.7c-.9 1.7-.2 3.4-.6 5.4l1.6-1.2.3.3-1.2 1.6 1.5.3.3.2c1.8 1.6 3.1 3.8 3.9 6 .5 1.2 1.2 2.2 2.1 3.2 2.1 2.6 4 5.3 5.7 8.2.2.3.4.5.7.7v3.8c2.8 4.7 5 10 9.5 13.8l-4-1.6c-1.4-.6-2.7-1.3-4-2 1 2.8 1.6 5.3 2.4 7.9 1.4 5.1 3.2 10.2 4.8 15.2.4 1.3 1 2.5 1.7 3.6.1.2.1.4.2.7-.8-.7-1.5-1.5-2-2.2l-1.5-2.8c-.6-.9-1.2-1.7-1.7-2.6l-1.4-3-.3 2-3.4-9.5c-1.2-3.1-2.3-6.3-3.4-9.3-.9-.5-1.6 0-2.5.2-2.3.6-4.5 1.9-6.1 3.6-1.6 1.6-2.4 3.7-2.4 5.9-.1 1.9-.3 3.7-.4 5.5-.1 1.8-.1 3.6-.1 5.5s.1 3.8 0 5.7c-.1 1.9-.3 1.6-.4 2.4s.3 2-.1 2.8-.2 1.6-.4 2.4c-.9 2.2-1.3 4.5-2.8 6.6-1 1.6-2.1 3-3.2 4.4-2.2 2.4-4.9 4.1-8.1 4.7-2 .5-4 .9-5.9 1.1-2.8.3-5.5.4-8.3.3-2.8.1-5.5.1-8.4 0-.9 0-1.9-.3-2.8-.4-.9-.1-2.1.1-3.1-.1-1 .2-1.9 0-2.7-.3z" class="st0"/><path d="M113 78.3l1.6-1.6.7-3.7-2.4-2.9v-5.9l.8-.7 2.8 3.5.3-2.8c1.6.9 2 2.2 2.2 3.7.3 1.5.7 2.9 1 4.6 1.6-.3 2.8.9 3.5 2 .8 1.1 1.4 1.6 2.1 2.6v2.4l-1.6 1c-.8.3-1.9-.3-2.6.8v4.9l-1.2 2.4-1.3.2c.1.3.1.6.3.7.8.7 1.6 1.3 2.4 1.9l-.7 1.6h-3.5l-2.2-2.6-2.9 1.5.7 1.3c-1.4 1-3.1.9-4.7 1.2s-3.1-.8-4.6-1.9l-.6.4-2.9-.5-1.6-1.5-.6-3.4 2.1-.7c0-1.1-.1-2 0-2.8.3-3.4 1.9-5.2 5.1-6.3.9-.3 1.7-.2 2.7-.4.9-.3 2.8.3 4.1.7l1 .3zm20.6 14.5l-.8 1.1c-.2.3-.5.3-.8.1l-.1-.1c-.7-1.2-2.8-1.2-2.2-3.1l-2.6-.8c-1.1-.3-1.9-1.5-1.7-2.7.1-.9.3-1.8.8-2.6.1.6.2 1.3.2 1.9 0 1 .4 2 1.2 2.6.5.3 1.1.5 1.7.5l1.9-2.3h2.5l.8-.8-.5-.5c.5-.9.5-.9 1.6-1.2l1.1 1c1-.2 1.2-1.5 2.4-.8l.5.9-.5 1.1-.8.2c-.1 1.4.3 2.8-.8 3.8s.5 1.4.3 2.2-.6.1-.8-.1c-.6-.3-1.1-.8-1.6-1.2l-1.8.8z" class="st0"/><path d="M122.9 46.1c1.5 2 1.2 4.7-.5 6.4l-5.3 5.3c-.8.7-1.9.7-2.6 0l-5.3-5.3c-1.9-1.8-1.9-4.9-.1-6.8 1.8-1.9 4.9-1.9 6.8-.1 1.9-1.9 5-1.8 6.9.2-.2.1 0 .1.1.3z" class="st1"/></symbol><symbol id="super-domes" viewBox="0 0 189.8 219.2"><path fill="#fff" d="M62.7 109.4H43.4c5.6-21.8 24.9-38.5 47.9-40zm4.5 0L93.1 73v36.4H67.2zm-22.5 17.1h48.4v19.98H44.7zm52 0h8.1v19.98h-8.1zm11.7 0h36.7v19.98h-36.7zm38-17.1H96.7V69.3a53.6 53.6 0 0 1 49.7 40.1zm-112 3.6h121v9.9h-121z"/><path fill="#fff" d="M94.9 0L0 54.8v109.6l94.9 54.8 94.9-54.8V54.8zm77.6 126.5h-23.8v21.8a1.7 1.7 0 0 1-1.8 1.8h-104a1.7 1.7 0 0 1-1.8-1.8v-21.8H17.3a1.8 1.8 0 0 1 0-3.6h13.5v-11.7a1.7 1.7 0 0 1 1.8-1.8h7.1a56.9 56.9 0 0 1 55-43.7c.2-.2.4-.2.7 0 26.7.1 48.8 18.9 54.8 43.7h7a1.7 1.7 0 0 1 1.8 1.8v11.7h13.5a1.8 1.8 0 1 1 0 3.6z"/></symbol><symbol id="mecha-stilts" viewBox="0 0 189.8 219.2"><path fill="#fff" d="M52.4 135.1h11.5v11.34H52.4zm15.2 0h18v11.34h-18zm21.6 0h11.5v11.34H89.2zm15.1 0h18v11.34h-18zm30.2-39H55.3c.9-23.2 18.6-36 39.6-36s38.7 12.8 39.6 36zm-8.6 39h11.5v11.34h-11.5zM41.6 99.7v31.8h106.6V99.7zm96.3 23.2H94a1.8 1.8 0 1 1 0-3.6h43.9a1.8 1.8 0 0 1 0 3.6z"/><path fill="#fff" d="M94.9 0L0 54.8v109.6l94.9 54.8 94.9-54.8V54.8zm56.9 133.3a1.7 1.7 0 0 1-1.8 1.8h-9v11.4h9a1.8 1.8 0 0 1 0 3.6H39.8a1.8 1.8 0 0 1 0-3.6h9v-11.4h-9a1.7 1.7 0 0 1-1.8-1.8V97.9a1.7 1.7 0 0 1 1.8-1.8h11.9c.9-25.6 20-39.6 43.2-39.6s42.3 14 43.2 39.6H150a1.7 1.7 0 0 1 1.8 1.8z"/></symbol><symbol id="space-bubbles" viewBox="0 0 189.8 219.2"><path fill="#fff" d="M73.9 134.6l-30.5 16-2.5-3.6 15.9-18.7h11.8l5.3 6.3zm2.5 2.9l7.4 9H59.3l17.1-9zm40.1-9.2l-15.1 18.2h-13l-15.1-18.2h43.2zm-3 9.2l17.1 9h-24.5l7.4-9zm-54.4-25.7c-1.8-4.2-2.2-9-2.2-13.7a39 39 0 0 1 78 0 42.3 42.3 0 0 1-2.2 13.7zm-12.4 3.6h98.5v9.36H46.7zm86.4 12.9l15.8 18.9-2.5 3.4-30.6-16 5.4-6.3h11.9z"/><path fill="#fff" d="M94.9 0L0 54.8v109.6l94.9 54.8 94.9-54.8V54.8zm57.6 148.1l-4.1 5.9a2 2 0 0 1-2.4.6l-8.6-4.5H52.3l-8.7 4.5a1.9 1.9 0 0 1-2.3-.6l-4.2-5.9a2.2 2.2 0 0 1 .2-2.2l15-17.6h-7.4a1.7 1.7 0 0 1-1.8-1.8v-12.9a1.7 1.7 0 0 1 1.8-1.8h10.4a53.4 53.4 0 0 1-2-13.7 42.6 42.6 0 0 1 85.2 0 45.9 45.9 0 0 1-2 13.7h10.4a1.7 1.7 0 0 1 1.8 1.8v12.9a1.7 1.7 0 0 1-1.8 1.8h-9.1l14.7 17.6a1.8 1.8 0 0 1 0 2.2z"/></symbol></svg>