<svg xmlns="http://www.w3.org/2000/svg" width="189.8" height="219.2" viewBox="0 0 189.8 219.2"><path fill="#fff" d="M52.4 135.1h11.5v11.34H52.4zm15.2 0h18v11.34h-18zm21.6 0h11.5v11.34H89.2zm15.1 0h18v11.34h-18zm30.2-39H55.3c.9-23.2 18.6-36 39.6-36s38.7 12.8 39.6 36zm-8.6 39h11.5v11.34h-11.5zM41.6 99.7v31.8h106.6V99.7zm96.3 23.2H94a1.8 1.8 0 1 1 0-3.6h43.9a1.8 1.8 0 0 1 0 3.6z"/><path fill="#fff" d="M94.9 0L0 54.8v109.6l94.9 54.8 94.9-54.8V54.8zm56.9 133.3a1.7 1.7 0 0 1-1.8 1.8h-9v11.4h9a1.8 1.8 0 0 1 0 3.6H39.8a1.8 1.8 0 0 1 0-3.6h9v-11.4h-9a1.7 1.7 0 0 1-1.8-1.8V97.9a1.7 1.7 0 0 1 1.8-1.8h11.9c.9-25.6 20-39.6 43.2-39.6s42.3 14 43.2 39.6H150a1.7 1.7 0 0 1 1.8 1.8z"/></svg>