<svg xmlns="http://www.w3.org/2000/svg" width="189.8" height="219.2" viewBox="0 0 189.8 219.2"><path fill="#fff" d="M73.9 134.6l-30.5 16-2.5-3.6 15.9-18.7h11.8l5.3 6.3zm2.5 2.9l7.4 9H59.3l17.1-9zm40.1-9.2l-15.1 18.2h-13l-15.1-18.2h43.2zm-3 9.2l17.1 9h-24.5l7.4-9zm-54.4-25.7c-1.8-4.2-2.2-9-2.2-13.7a39 39 0 0 1 78 0 42.3 42.3 0 0 1-2.2 13.7zm-12.4 3.6h98.5v9.36H46.7zm86.4 12.9l15.8 18.9-2.5 3.4-30.6-16 5.4-6.3h11.9z"/><path fill="#fff" d="M94.9 0L0 54.8v109.6l94.9 54.8 94.9-54.8V54.8zm57.6 148.1l-4.1 5.9a2 2 0 0 1-2.4.6l-8.6-4.5H52.3l-8.7 4.5a1.9 1.9 0 0 1-2.3-.6l-4.2-5.9a2.2 2.2 0 0 1 .2-2.2l15-17.6h-7.4a1.7 1.7 0 0 1-1.8-1.8v-12.9a1.7 1.7 0 0 1 1.8-1.8h10.4a53.4 53.4 0 0 1-2-13.7 42.6 42.6 0 0 1 85.2 0 45.9 45.9 0 0 1-2 13.7h10.4a1.7 1.7 0 0 1 1.8 1.8v12.9a1.7 1.7 0 0 1-1.8 1.8h-9.1l14.7 17.6a1.8 1.8 0 0 1 0 2.2z"/></svg>